<?xml version="1.0" encoding="UTF-8" standalone="no"?><!DOCTYPE svg PUBLIC "-//W3C//DTD SVG 1.1//EN" "http://www.w3.org/Graphics/SVG/1.1/DTD/svg11.dtd"><svg width="100%" height="100%" viewBox="0 0 5 5" version="1.1" xmlns="http://www.w3.org/2000/svg" xmlns:xlink="http://www.w3.org/1999/xlink" xml:space="preserve" style="fill-rule:evenodd;clip-rule:evenodd;stroke-linejoin:round;stroke-miterlimit:1.41421;"><path id="Search" d="M2.891,3.18c-0.115,0.085 -0.239,0.156 -0.371,0.21c-0.201,0.083 -0.418,0.125 -0.635,0.125c-0.217,0 -0.434,-0.042 -0.635,-0.125c-0.193,-0.079 -0.372,-0.195 -0.523,-0.339c-0.147,-0.14 -0.268,-0.306 -0.355,-0.488c-0.075,-0.155 -0.126,-0.322 -0.15,-0.493c-0.026,-0.183 -0.021,-0.371 0.014,-0.552c0.028,-0.149 0.077,-0.293 0.144,-0.429c0.085,-0.169 0.197,-0.323 0.332,-0.455c0.135,-0.132 0.292,-0.241 0.464,-0.321c0.143,-0.067 0.297,-0.114 0.454,-0.138c0.077,-0.011 0.155,-0.017 0.233,-0.019c0.022,0 0.022,0 0.044,0c0.078,0.002 0.156,0.008 0.234,0.019c0.156,0.024 0.31,0.071 0.454,0.138c0.177,0.083 0.339,0.197 0.477,0.335c0.134,0.134 0.245,0.289 0.327,0.459c0.068,0.143 0.117,0.296 0.143,0.452c0.028,0.169 0.03,0.342 0.006,0.511c-0.024,0.171 -0.074,0.338 -0.149,0.493c-0.048,0.098 -0.104,0.191 -0.169,0.278l1.224,1.224l-0.34,0.339l-1.223,-1.224Zm-1.025,-2.784c-0.067,0.001 -0.134,0.006 -0.2,0.017c-0.134,0.02 -0.266,0.06 -0.389,0.117c-0.147,0.069 -0.281,0.162 -0.397,0.276c-0.116,0.113 -0.213,0.245 -0.285,0.39c-0.057,0.116 -0.099,0.24 -0.124,0.367c-0.029,0.156 -0.033,0.317 -0.011,0.474c0.02,0.146 0.063,0.289 0.128,0.422c0.075,0.156 0.179,0.298 0.304,0.418c0.13,0.124 0.283,0.223 0.449,0.291c0.173,0.071 0.358,0.107 0.544,0.107c0.186,0 0.372,-0.036 0.544,-0.107c0.166,-0.068 0.319,-0.167 0.449,-0.291c0.125,-0.12 0.229,-0.262 0.305,-0.418c0.064,-0.133 0.107,-0.276 0.128,-0.422c0.022,-0.157 0.018,-0.318 -0.012,-0.474c-0.024,-0.122 -0.063,-0.24 -0.116,-0.351c-0.071,-0.146 -0.166,-0.28 -0.28,-0.394c-0.119,-0.119 -0.258,-0.217 -0.41,-0.288c-0.123,-0.057 -0.254,-0.097 -0.389,-0.117c-0.066,-0.011 -0.133,-0.016 -0.2,-0.017c-0.019,0 -0.019,0 -0.038,0Z" style="fill:#1d929b;"/></svg>