<?xml version="1.0" encoding="UTF-8" standalone="no"?><!DOCTYPE svg PUBLIC "-//W3C//DTD SVG 1.1//EN" "http://www.w3.org/Graphics/SVG/1.1/DTD/svg11.dtd"><svg width="100%" height="100%" viewBox="0 0 6 6" version="1.1" xmlns="http://www.w3.org/2000/svg" xmlns:xlink="http://www.w3.org/1999/xlink" xml:space="preserve" style="fill-rule:evenodd;clip-rule:evenodd;stroke-linejoin:round;stroke-miterlimit:1.41421;"><path d="M1.108,2.955c-0.56,0.074 -0.991,0.517 -0.991,1.052l0,0.758c0,0.172 0.148,0.305 0.331,0.305l3.302,0c0.181,0 0.332,-0.136 0.332,-0.305l0,-0.758c0,-0.534 -0.431,-0.978 -0.992,-1.052l0,-0.62c0,-0.501 -0.443,-0.91 -0.991,-0.91c-0.546,0 -0.991,0.408 -0.991,0.91l0,0.62Zm0.061,0.607c-0.225,0.044 -0.391,0.227 -0.391,0.445l0,0.456l2.643,0l0,-0.456c0,-0.22 -0.168,-0.401 -0.391,-0.445c-0.139,0.348 -0.504,0.597 -0.931,0.597c-0.427,0 -0.791,-0.25 -0.93,-0.597Zm0.6,-1.226c0,-0.168 0.146,-0.303 0.33,-0.303c0.183,0 0.331,0.134 0.331,0.303l0,0.912c0,0.167 -0.147,0.303 -0.331,0.303c-0.182,0 -0.33,-0.135 -0.33,-0.303l0,-0.912Zm1.652,-1.518c0.184,0 0.33,0.134 0.33,0.305l0,0.908c0,0.109 -0.061,0.204 -0.164,0.259c-0.158,0.083 -0.213,0.268 -0.123,0.414c0.091,0.146 0.293,0.196 0.451,0.113c0.157,-0.082 0.283,-0.2 0.365,-0.339c0.013,-0.021 0.513,0.086 0.462,0.77l-0.165,0c-0.495,0 -0.495,0.607 0,0.607c0.054,0 0.498,0 0.498,0c0.181,0 0.328,-0.136 0.328,-0.302c0,0 0,-0.396 0,-0.609c0,-0.73 -0.991,-1.045 -0.991,-1.045l0,-0.776c0,-0.507 -0.443,-0.913 -0.991,-0.913c-0.55,0 -0.991,0.408 -0.991,0.913c0,0.168 0.148,0.304 0.33,0.304c0.182,0 0.33,-0.136 0.33,-0.304c0,-0.17 0.147,-0.305 0.331,-0.305Z" style="fill:#25929a;"/></svg>