<?xml version="1.0" encoding="UTF-8" standalone="no"?><!DOCTYPE svg PUBLIC "-//W3C//DTD SVG 1.1//EN" "http://www.w3.org/Graphics/SVG/1.1/DTD/svg11.dtd"><svg width="100%" height="100%" viewBox="0 0 3 6" version="1.1" xmlns="http://www.w3.org/2000/svg" xmlns:xlink="http://www.w3.org/1999/xlink" xml:space="preserve" style="fill-rule:evenodd;clip-rule:evenodd;stroke-linejoin:round;stroke-miterlimit:1.41421;"><path d="M2.538,0.721c0.005,-0.021 0.01,-0.047 0.01,-0.073c0,-0.161 -0.13,-0.286 -0.286,-0.286c-0.036,0 -0.073,0.006 -0.109,0.021c-0.088,-0.062 -0.192,-0.099 -0.307,-0.099c-0.161,0 -0.307,0.073 -0.4,0.188c-0.073,-0.037 -0.156,-0.058 -0.245,-0.058c-0.14,0 -0.265,0.052 -0.358,0.141c-0.058,-0.031 -0.125,-0.047 -0.193,-0.047c-0.234,0 -0.426,0.192 -0.426,0.426c0,0.167 0.094,0.307 0.229,0.38l0.234,1.815c0.046,0.358 0.026,0.722 -0.063,1.065l-0.062,0.224c-0.073,0.286 0.093,0.582 0.327,0.582l1.108,0c0.234,0 0.4,-0.296 0.328,-0.582l-0.058,-0.224c-0.088,-0.343 -0.109,-0.707 -0.062,-1.065l0.224,-1.716c0.145,-0.068 0.249,-0.214 0.249,-0.385c-0.01,-0.12 -0.057,-0.229 -0.14,-0.307Zm-0.728,2.132c-0.057,0 -0.104,-0.047 -0.104,-0.104c0,-0.057 0.047,-0.104 0.104,-0.104c0.057,0 0.104,0.047 0.104,0.104c0,0.057 -0.047,0.104 -0.104,0.104Zm-0.572,-0.728c0,-0.088 0.067,-0.156 0.156,-0.156c0.088,0 0.156,0.068 0.156,0.156c0,0.088 -0.068,0.156 -0.156,0.156c-0.089,0 -0.156,-0.068 -0.156,-0.156Zm0.598,-0.26c-0.073,0 -0.13,-0.057 -0.13,-0.13c0,-0.073 0.057,-0.13 0.13,-0.13c0.073,0 0.13,0.057 0.13,0.13c0,0.073 -0.057,0.13 -0.13,0.13Zm0.114,-0.541l0,0Zm0.297,-0.005c-0.078,0 -0.151,-0.031 -0.208,-0.088l-0.047,-0.047l-0.068,0.015c-0.026,0.006 -0.052,0.006 -0.078,0.006c-0.062,0 -0.125,-0.016 -0.182,-0.047l-0.093,-0.047l-0.068,0.078c-0.078,0.088 -0.187,0.14 -0.302,0.14c-0.098,0 -0.197,-0.036 -0.27,-0.109l-0.068,-0.062l-0.078,0.041c-0.041,0.021 -0.088,0.032 -0.135,0.032c-0.166,0 -0.301,-0.136 -0.301,-0.302c0,-0.166 0.135,-0.301 0.301,-0.301c0.047,0 0.094,0.01 0.135,0.031l0.078,0.041l0.068,-0.062c0.073,-0.068 0.172,-0.109 0.27,-0.109c0.063,0 0.125,0.015 0.182,0.047l0.094,0.046l0.068,-0.078c0.078,-0.088 0.187,-0.14 0.301,-0.14c0.083,0 0.161,0.026 0.229,0.073l0.057,0.041l0.068,-0.026c0.021,-0.005 0.036,-0.01 0.057,-0.01c0.088,0 0.161,0.073 0.161,0.161c0,0.011 0,0.026 -0.005,0.042l-0.021,0.073l0.057,0.052c0.058,0.057 0.094,0.13 0.094,0.213c0,0.166 -0.135,0.296 -0.296,0.296Z" style="fill:#25929a;fill-rule:nonzero;"/></svg>