<?xml version="1.0" encoding="UTF-8" standalone="no"?><!DOCTYPE svg PUBLIC "-//W3C//DTD SVG 1.1//EN" "http://www.w3.org/Graphics/SVG/1.1/DTD/svg11.dtd"><svg width="100%" height="100%" viewBox="0 0 4 6" version="1.1" xmlns="http://www.w3.org/2000/svg" xmlns:xlink="http://www.w3.org/1999/xlink" xml:space="preserve" style="fill-rule:evenodd;clip-rule:evenodd;stroke-linejoin:round;stroke-miterlimit:1.41421;"><path d="M3.117,1.629c-0.24,-0.269 -0.672,-0.554 -0.752,-0.775c-0.044,-0.079 -0.267,-0.097 -0.388,-0.159c0.012,-0.156 0.065,-0.27 0.091,-0.411c-0.242,0.001 -0.412,0.074 -0.547,0.183c-0.676,0.039 -1.072,0.62 -1.14,1.254c-0.073,0.689 0.247,1.14 0.183,1.817c0.072,0.038 0.158,0.07 0.251,0.096l0,0l-0.207,0.479l0.234,0c-0.001,0.007 -0.002,0.014 -0.002,0.021l0,0.091c0,0.013 0.003,0.026 0.007,0.038l-0.069,0c-0.059,0 -0.106,0.047 -0.106,0.106l0,0.055l-0.285,0c-0.059,0 -0.107,0.048 -0.107,0.106l-0.106,0.364c0,0.059 0.048,0.106 0.106,0.106l2.359,0c0.059,0 0.107,-0.047 0.107,-0.106l-0.089,-0.364c0,-0.058 -0.048,-0.106 -0.106,-0.106l-0.195,0l0,-0.055c0,-0.059 -0.047,-0.106 -0.106,-0.106l-0.069,0c0.004,-0.012 0.007,-0.025 0.007,-0.038l0,-0.091c0,-0.007 -0.001,-0.014 -0.002,-0.021l0.089,0c0.141,0.001 0.148,-0.115 0.181,-0.34c0.061,-0.913 -0.4,-1.303 -0.821,-1.733c0.259,0.069 0.35,-0.112 0.593,-0.091c0.188,0.016 0.282,0.233 0.433,0.25c0.172,0.021 0.355,-0.081 0.456,-0.205c0.101,-0.124 0.083,-0.285 0,-0.365Z" style="fill:#25929a;fill-rule:nonzero;"/></svg>