<?xml version="1.0" encoding="UTF-8" standalone="no"?><!DOCTYPE svg PUBLIC "-//W3C//DTD SVG 1.1//EN" "http://www.w3.org/Graphics/SVG/1.1/DTD/svg11.dtd"><svg width="100%" height="100%" viewBox="0 0 5 6" version="1.1" xmlns="http://www.w3.org/2000/svg" xmlns:xlink="http://www.w3.org/1999/xlink" xml:space="preserve" style="fill-rule:evenodd;clip-rule:evenodd;stroke-linejoin:round;stroke-miterlimit:1.41421;"><path d="M2.388,0.21c-0.361,0 -0.652,0.292 -0.652,0.652c0,0.36 0.291,0.652 0.652,0.652c0.36,0 0.651,-0.292 0.651,-0.652c0,-0.36 -0.291,-0.652 -0.651,-0.652Zm-2.167,0.83c-0.048,0 -0.097,0.002 -0.145,0.005l0,3.08c0.83,0.116 1.482,0.353 2.312,0.945c0.829,-0.592 1.481,-0.829 2.311,-0.945l0,-3.08c-0.771,-0.059 -1.482,0.297 -2.311,0.945c-0.778,-0.608 -1.451,-0.958 -2.167,-0.95l0,0Z" style="fill:#25929a;fill-rule:nonzero;"/></svg>